<?xml version="1.0" encoding="UTF-8"?>
<svg width="19px" height="17px" viewBox="0 0 19 17" version="1.1" xmlns="http://www.w3.org/2000/svg" xmlns:xlink="http://www.w3.org/1999/xlink">
    <!-- Generator: Sketch 53.1 (72631) - https://sketchapp.com -->
    <title>Shape</title>
    <desc>Created with Sketch.</desc>
    <g id="Page-1" stroke="none" stroke-width="1" fill="none" fill-rule="evenodd">
        <g id="Artboard" transform="translate(-119.000000, -67.000000)" fill="#9099A1" fill-rule="nonzero">
            <g id="comment-regular" transform="translate(119.000000, 67.000000)">
                <path d="M9.50123128,0 C4.25464575,0 0.00246256418,3.5328125 0.00246256418,7.89285714 C0.00246256418,9.69910714 0.740843414,11.3535714 1.96529407,12.6854911 C1.41243605,14.1805804 0.262194521,15.4479911 0.243642239,15.4631696 C-0.00124789235,15.7287946 -0.0680361099,16.1158482 0.0729612383,16.4497768 C0.213958586,16.7837054 0.536768305,17 0.892972131,17 C3.1749029,17 4.97447431,16.0247768 6.05421717,15.2430804 C7.1265391,15.5883929 8.28420154,15.7857143 9.50123128,15.7857143 C14.7478168,15.7857143 19,12.2529018 19,7.89285714 C19,3.5328125 14.7478168,0 9.50123128,0 Z M9.50123128,13.9642857 C8.51053939,13.9642857 7.53097886,13.8087054 6.59223336,13.5051339 L5.74995973,13.2319196 L5.02642071,13.7555804 C4.49582542,14.1388393 3.76857594,14.5676339 2.8929082,14.8560268 C3.16377153,14.396875 3.42721394,13.8808036 3.63128905,13.3305804 L4.02459744,12.2642857 L3.2602434,11.4370536 C2.58865077,10.7046875 1.7834817,9.49419643 1.7834817,7.89285714 C1.7834817,4.54598214 5.24533764,1.82142857 9.50123128,1.82142857 C13.7571249,1.82142857 17.2189809,4.54598214 17.2189809,7.89285714 C17.2189809,11.2397321 13.7571249,13.9642857 9.50123128,13.9642857 Z" id="Shape"></path>
            </g>
        </g>
    </g>
</svg>