<?xml version="1.0" encoding="UTF-8"?>
<svg width="62px" height="62px" viewBox="0 0 62 62" version="1.1" xmlns="http://www.w3.org/2000/svg" xmlns:xlink="http://www.w3.org/1999/xlink">
    <!-- Generator: Sketch 53.1 (72631) - https://sketchapp.com -->
    <title>dota2</title>
    <desc>Created with Sketch.</desc>
    <defs>
        <linearGradient x1="50%" y1="0%" x2="50%" y2="100%" id="linearGradient-1">
            <stop stop-color="#2C3445" offset="0%"></stop>
            <stop stop-color="#232731" offset="100%"></stop>
        </linearGradient>
        <rect id="path-2" x="0" y="0" width="62" height="62" rx="2"></rect>
    </defs>
    <g id="Page-1" stroke="none" stroke-width="1" fill="none" fill-rule="evenodd">
        <g id="dota2">
            <mask id="mask-3" fill="white">
                <use xlink:href="#path-2"></use>
            </mask>
            <use id="Mask" fill="url(#linearGradient-1)" xlink:href="#path-2"></use>
            <g id="cogs-solid" opacity="0.853027344" mask="url(#mask-3)" fill="#FFFFFF" fill-rule="nonzero">
                <g transform="translate(11.000000, 15.000000)" id="Shape">
                    <path d="M32.8097188,11.9708019 L32.2843629,12.8675728 C32.0921595,13.1999425 31.6821256,13.3379073 31.3169392,13.2062136 C30.5609392,12.9302841 29.869007,12.5352032 29.260363,12.0397843 C28.9656511,11.8014815 28.8887698,11.3813161 29.0809732,11.0552176 L29.6063291,10.1584467 C29.1642613,9.65675663 28.8182952,9.07354196 28.5876512,8.44015829 L27.5305326,8.44015829 C27.1461258,8.44015829 26.8129733,8.1704999 26.7489055,7.79423237 C26.6207699,7.04169732 26.6143631,6.25153552 26.7489055,5.46764484 C26.8129733,5.09137731 27.1461258,4.81544779 27.5305326,4.81544779 L28.5876512,4.81544779 C28.8182952,4.18206412 29.1642613,3.59884946 29.6063291,3.09715942 L29.0809732,2.20038849 C28.8887698,1.87428996 28.9592444,1.45412456 29.260363,1.21582179 C29.869007,0.720402885 30.567346,0.325321983 31.3169392,0.049392464 C31.6821256,-0.08230117 32.0921595,0.0556635895 32.2843629,0.388033237 L32.8097188,1.28480417 C33.4824306,1.16565279 34.167956,1.16565279 34.8406678,1.28480417 L35.3660237,0.388033237 C35.5582271,0.0556635895 35.968261,-0.08230117 36.3334474,0.049392464 C37.0894474,0.325321983 37.7813796,0.720402885 38.3900236,1.21582179 C38.6847355,1.45412456 38.7616168,1.87428996 38.5694134,2.20038849 L38.0440575,3.09715942 C38.4861253,3.59884946 38.8320914,4.18206412 39.0627354,4.81544779 L40.119854,4.81544779 C40.5042608,4.81544779 40.8374133,5.08510619 40.9014811,5.46137371 C41.0296167,6.21390876 41.0360235,7.00407057 40.9014811,7.78796125 C40.8374133,8.16422877 40.5042608,8.44015829 40.119854,8.44015829 L39.0627354,8.44015829 C38.8320914,9.07354196 38.4861253,9.65675663 38.0440575,10.1584467 L38.5694134,11.0552176 C38.7616168,11.3813161 38.6911422,11.8014815 38.3900236,12.0397843 C37.7813796,12.5352032 37.0830406,12.9302841 36.3334474,13.2062136 C35.968261,13.3379073 35.5582271,13.1999425 35.3660237,12.8675728 L34.8406678,11.9708019 C34.1743628,12.0899533 33.4824306,12.0899533 32.8097188,11.9708019 L32.8097188,11.9708019 Z M32.1370069,8.28338016 C34.603617,10.1396333 37.4161931,7.38660922 35.5197864,4.97222593 C33.0531764,3.10970167 30.2406002,5.86899686 32.1370069,8.28338016 L32.1370069,8.28338016 Z M24.7499903,17.9346422 L26.909075,18.9881913 C27.5561597,19.3519165 27.838058,20.123265 27.5817868,20.8130888 C27.0115834,22.3307011 25.890397,23.722891 24.8524988,24.9394893 C24.3783971,25.4976195 23.5583294,25.6355842 22.9112446,25.271859 L21.0468718,24.2183099 C20.0217871,25.0774541 18.8301262,25.7610067 17.52955,26.2062566 L17.52955,28.3133548 C17.52955,29.0408053 16.9977873,29.6679179 16.2674144,29.7933404 C14.6913467,30.0567277 13.0383976,30.0692699 11.4046689,29.7933404 C10.6678893,29.6679179 10.123313,29.0470765 10.123313,28.3133548 L10.123313,26.2062566 C8.82273679,25.7547356 7.63107583,25.0774541 6.60599113,24.2183099 L4.74161833,25.2655878 C4.10094039,25.6293131 3.27446585,25.4913483 2.80036418,24.9332182 C1.76246592,23.7166198 0.666906647,22.32443 0.0967032825,20.8130888 C-0.159567892,20.1295361 0.1223304,19.3581877 0.769415117,18.9881913 L2.90287265,17.9346422 C2.65300825,16.623977 2.65300825,15.275685 2.90287265,13.9587487 L0.769415117,12.8989285 C0.1223304,12.5352032 -0.165974672,11.7638548 0.0967032825,11.0803021 C0.666906647,9.56268974 1.76246592,8.1704999 2.80036418,6.95390156 C3.27446585,6.3957714 4.09453361,6.25780664 4.74161833,6.62153192 L6.60599113,7.67508099 C7.63107583,6.81593681 8.82273679,6.13238413 10.123313,5.68713423 L10.123313,3.57376496 C10.123313,2.85258553 10.6486689,2.22547299 11.3790418,2.10005048 C12.9551095,1.83666321 14.6144653,1.82412096 16.2481941,2.09377935 C16.9849737,2.21920186 17.52955,2.84004328 17.52955,3.57376496 L17.52955,5.6808631 C18.8301262,6.13238413 20.0217871,6.80966568 21.0468718,7.66880986 L22.9112446,6.61526079 C23.5519226,6.25153552 24.3783971,6.38950028 24.8524988,6.94763044 C25.890397,8.16422877 26.9795495,9.55641862 27.5497529,11.074031 C27.8060241,11.7575836 27.5561597,12.5289321 26.909075,12.8989285 L24.7499903,13.9524775 C24.9998547,15.2694139 24.9998547,16.6177059 24.7499903,17.9346422 Z M17.2156178,19.2578497 C21.0084312,14.4290831 15.3768721,8.91676382 10.443652,12.6292701 C6.65083858,17.4580367 12.2823977,22.9703559 17.2156178,19.2578497 Z M32.8097188,30.7151958 L32.2843629,31.6119668 C32.0921595,31.9443364 31.6821256,32.0823012 31.3169392,31.9506075 C30.5609392,31.674678 29.869007,31.2795971 29.260363,30.7841782 C28.9656511,30.5458754 28.8887698,30.12571 29.0809732,29.7996115 L29.6063291,28.9028406 C29.1642613,28.4011505 28.8182952,27.8179359 28.5876512,27.1845522 L27.5305326,27.1845522 C27.1461258,27.1845522 26.8129733,26.9148938 26.7489055,26.5386263 C26.6207699,25.7860912 26.6143631,24.9959294 26.7489055,24.2120388 C26.8129733,23.8357712 27.1461258,23.5598417 27.5305326,23.5598417 L28.5876512,23.5598417 C28.8182952,22.926458 29.1642613,22.3432434 29.6063291,21.8415533 L29.0809732,20.9447824 C28.8887698,20.6186839 28.9592444,20.1985185 29.260363,19.9602157 C29.869007,19.4647968 30.567346,19.0697159 31.3169392,18.7937864 C31.6821256,18.6620927 32.0921595,18.8000575 32.2843629,19.1324272 L32.8097188,20.0291981 C33.4824306,19.9100467 34.167956,19.9100467 34.8406678,20.0291981 L35.3660237,19.1324272 C35.5582271,18.8000575 35.968261,18.6620927 36.3334474,18.7937864 C37.0894474,19.0697159 37.7813796,19.4647968 38.3900236,19.9602157 C38.6847355,20.1985185 38.7616168,20.6186839 38.5694134,20.9447824 L38.0440575,21.8415533 C38.4861253,22.3432434 38.8320914,22.926458 39.0627354,23.5598417 L40.119854,23.5598417 C40.5042608,23.5598417 40.8374133,23.8295001 40.9014811,24.2057676 C41.0296167,24.9583027 41.0360235,25.7484645 40.9014811,26.5323552 C40.8374133,26.9086227 40.5042608,27.1845522 40.119854,27.1845522 L39.0627354,27.1845522 C38.8320914,27.8179359 38.4861253,28.4011505 38.0440575,28.9028406 L38.5694134,29.7996115 C38.7616168,30.12571 38.6911422,30.5458754 38.3900236,30.7841782 C37.7813796,31.2795971 37.0830406,31.674678 36.3334474,31.9506075 C35.968261,32.0823012 35.5582271,31.9443364 35.3660237,31.6119668 L34.8406678,30.7151958 C34.1743628,30.8343472 33.4824306,30.8343472 32.8097188,30.7151958 Z M32.1370069,27.0215029 C34.603617,28.8777561 37.4161931,26.124732 35.5197864,23.7103487 C33.0531764,21.8540956 30.2406002,24.6071197 32.1370069,27.0215029 L32.1370069,27.0215029 Z"></path>
                </g>
            </g>
        </g>
    </g>
</svg>