<?xml version="1.0" encoding="UTF-8"?>
<svg width="62px" height="62px" viewBox="0 0 62 62" version="1.1" xmlns="http://www.w3.org/2000/svg" xmlns:xlink="http://www.w3.org/1999/xlink">
    <!-- Generator: Sketch 53.1 (72631) - https://sketchapp.com -->
    <title>dota2</title>
    <desc>Created with Sketch.</desc>
    <defs>
        <linearGradient x1="50%" y1="0%" x2="50%" y2="100%" id="linearGradient-1">
            <stop stop-color="#2C3445" offset="0%"></stop>
            <stop stop-color="#232731" offset="100%"></stop>
        </linearGradient>
        <rect id="path-2" x="0" y="0" width="62" height="62" rx="2"></rect>
    </defs>
    <g id="Page-1" stroke="none" stroke-width="1" fill="none" fill-rule="evenodd">
        <g id="dota2">
            <mask id="mask-3" fill="white">
                <use xlink:href="#path-2"></use>
            </mask>
            <use id="Mask" fill="url(#linearGradient-1)" xlink:href="#path-2"></use>
            <g id="dice-three-solid" mask="url(#mask-3)" fill="#FFFFFF" fill-rule="nonzero" opacity="0.85">
                <g transform="translate(15.000000, 14.000000)" id="Shape">
                    <path d="M28.2857143,0.5 L4.71428571,0.5 C2.11037946,0.5 0,2.61037946 0,5.21428571 L0,28.7857143 C0,31.3896205 2.11037946,33.5 4.71428571,33.5 L28.2857143,33.5 C30.8896205,33.5 33,31.3896205 33,28.7857143 L33,5.21428571 C33,2.61037946 30.8896205,0.5 28.2857143,0.5 Z M9.42857143,12.2857143 C8.12698661,12.2857143 7.07142857,11.2301563 7.07142857,9.92857143 C7.07142857,8.62698661 8.12698661,7.57142857 9.42857143,7.57142857 C10.7301563,7.57142857 11.7857143,8.62698661 11.7857143,9.92857143 C11.7857143,11.2301563 10.7301563,12.2857143 9.42857143,12.2857143 Z M16.5,19.3571429 C15.1984152,19.3571429 14.1428571,18.3015848 14.1428571,17 C14.1428571,15.6984152 15.1984152,14.6428571 16.5,14.6428571 C17.8015848,14.6428571 18.8571429,15.6984152 18.8571429,17 C18.8571429,18.3015848 17.8015848,19.3571429 16.5,19.3571429 Z M23.5714286,26.4285714 C22.2698437,26.4285714 21.2142857,25.3730134 21.2142857,24.0714286 C21.2142857,22.7698438 22.2698437,21.7142857 23.5714286,21.7142857 C24.8730134,21.7142857 25.9285714,22.7698438 25.9285714,24.0714286 C25.9285714,25.3730134 24.8730134,26.4285714 23.5714286,26.4285714 Z"></path>
                </g>
            </g>
        </g>
    </g>
</svg>