<?xml version="1.0" encoding="UTF-8"?>
<svg width="18px" height="18px" viewBox="0 0 18 18" version="1.1" xmlns="http://www.w3.org/2000/svg" xmlns:xlink="http://www.w3.org/1999/xlink">
    <!-- Generator: Sketch 53.1 (72631) - https://sketchapp.com -->
    <title>thumbs-up-regular</title>
    <desc>Created with Sketch.</desc>
    <g id="Page-1" stroke="none" stroke-width="1" fill="none" fill-rule="evenodd">
        <g id="Artboard" transform="translate(-36.000000, -52.000000)" fill="#9099A1" fill-rule="nonzero">
            <g id="thumbs-up-regular" transform="translate(36.000000, 52.000000)">
                <path d="M17.485125,10.0789453 C17.814,9.556875 18,9 18,8.32675781 C18,6.77935547 16.604325,5.31808594 14.78175,5.31808594 L13.41375,5.31808594 C13.59825,4.86773437 13.745625,4.32914062 13.745625,3.68191406 C13.745625,1.12275 12.33225,0 10.173,0 C7.8627375,0 7.9945125,3.33748828 7.482,3.81796875 C6.6289875,4.61766797 5.6214375,6.15399609 4.9035,6.75 L1.2,6.75 C0.5372625,6.75 0,7.25368359 0,7.875 L0,16.3125 C0,16.9338164 0.5372625,17.4375 1.2,17.4375 L3.6,17.4375 C4.1584875,17.4375 4.6278,17.0798203 4.761675,16.5955078 C6.4307625,16.6306992 7.576425,17.9996484 11.42925,17.9996484 C11.7,17.9996484 12,18 12.2625,18 C15.1543875,18 16.461975,16.6140352 16.49775,14.6485547 C16.9972125,14.0008008 17.2589625,13.1325469 17.148,12.2934375 C17.517525,11.6447344 17.6604,10.8751289 17.485125,10.0789453 Z M15.1695,11.9714062 C15.6405,12.7142578 15.21675,13.7084766 14.64675,13.9953516 C14.9355,15.7102734 13.98645,16.3121484 12.65475,16.3121484 L11.2365,16.3121484 C8.5500375,16.3121484 6.8104125,14.9825391 4.8,14.9825391 L4.8,8.4375 L5.2095,8.4375 C6.273,8.4375 7.75875,5.94527344 8.75475,5.01117187 C9.81825,4.01414062 9.463875,2.35230469 10.173,1.6875 C11.945625,1.6875 11.945625,2.84695312 11.945625,3.68191406 C11.945625,5.05898437 10.882125,5.67597656 10.882125,7.00558594 L14.78175,7.00558594 C15.573375,7.00558594 16.196625,7.67039062 16.2,8.33519531 C16.203375,8.99964844 15.71925,9.66445312 15.364875,9.66445312 C15.8707125,10.1761523 15.9787875,11.2547812 15.1695,11.9714062 Z" id="Shape"></path>
            </g>
        </g>
    </g>
</svg>