<?xml version="1.0" encoding="UTF-8"?>
<svg width="17px" height="17px" viewBox="0 0 17 17" version="1.1" xmlns="http://www.w3.org/2000/svg" xmlns:xlink="http://www.w3.org/1999/xlink">
    <!-- Generator: Sketch 53.1 (72631) - https://sketchapp.com -->
    <title>thumbs-up-solid(1)</title>
    <desc>Created with Sketch.</desc>
    <defs>
        <linearGradient x1="0%" y1="0%" x2="100%" y2="100%" id="linearGradient-1">
            <stop stop-color="#007BFF" offset="0%"></stop>
            <stop stop-color="#AE06D2" offset="100%"></stop>
        </linearGradient>
    </defs>
    <g id="Page-1" stroke="none" stroke-width="1" fill="none" fill-rule="evenodd">
        <g id="Artboard" transform="translate(-37.000000, -104.000000)" fill="url(#linearGradient-1)" fill-rule="nonzero">
            <g id="thumbs-up-solid(1)" transform="translate(37.000000, 104.000000)">
                <path d="M3.45312711,7.4375 L0.796875488,7.4375 C0.356767797,7.4375 0,7.79426758 0,8.234375 L0,16.203125 C0,16.6432324 0.356767797,17 0.796875488,17 L3.45312711,17 C3.89323481,17 4.2500026,16.6432324 4.2500026,16.203125 L4.2500026,8.234375 C4.2500026,7.79426758 3.89323481,7.4375 3.45312711,7.4375 Z M12.7500078,2.70446094 C12.7500078,4.11280469 11.8877221,4.90277344 11.6451067,5.84375 L15.0226303,5.84375 C16.1315157,5.84375 16.9947975,6.76500391 16.9999772,7.77278516 C17.0027663,8.36838281 16.7494263,9.00956836 16.3545413,9.4062793 L16.3508889,9.40993164 C16.6774751,10.184793 16.6243832,11.2705352 16.041834,12.0485508 C16.3300705,12.9083457 16.039543,13.9645039 15.4979001,14.5307168 C15.6406072,15.1150254 15.572408,15.6123086 15.2937672,16.0126387 C14.616091,16.9862871 12.9364767,17 11.5161457,17 L11.4216828,16.9999668 C9.81840249,16.9994023 8.50624739,16.4156582 7.45191472,15.9465977 C6.92209213,15.7108887 6.2293417,15.4190996 5.70373591,15.4094375 C5.48658734,15.4054531 5.31250325,15.228248 5.31250325,15.0110664 L5.31250325,7.91323437 C5.31250325,7.80698437 5.35506968,7.70501758 5.43064004,7.63031055 C6.74594944,6.33060742 7.31153182,4.95457031 8.38960475,3.87467187 C8.88114411,3.38220312 9.05990984,2.63832031 9.23273221,1.91894141 C9.3803866,1.30465039 9.68924226,0 10.3593813,0 C11.1562568,0 12.7500078,0.265625 12.7500078,2.70446094 Z" id="Shape"></path>
            </g>
        </g>
    </g>
</svg>