<?xml version="1.0" encoding="UTF-8"?>
<svg width="23px" height="27px" viewBox="0 0 23 27" version="1.1" xmlns="http://www.w3.org/2000/svg" xmlns:xlink="http://www.w3.org/1999/xlink">
    <!-- Generator: Sketch 53.1 (72631) - https://sketchapp.com -->
    <title>life-ring-regular</title>
    <desc>Created with Sketch.</desc>
    <g id="Page-1" stroke="none" stroke-width="1" fill="none" fill-rule="evenodd">
        <g id="Artboard" transform="translate(-142.000000, -67.000000)" fill-rule="nonzero">
            <g id="life-ring-regular" transform="translate(141.000000, 67.000000)">
                <path d="M17.4593023,19 C18.8400181,19 19.9593023,17.8807157 19.9593023,16.5 C19.9593023,15.1192843 18.8400181,14 17.4593023,14 C16.0785866,14 14.9593023,15.1192843 14.9593023,16.5 C14.9593023,17.8807157 16.0785866,19 17.4593023,19 Z M16.4169838,18.2266129 L16.9554011,17.6881956 C17.2760261,17.8243448 17.6421753,17.824506 17.9632035,17.6881956 L18.5016209,18.2266129 C17.8643527,18.6128931 17.0542519,18.6128931 16.4169838,18.2266129 Z M18.2657539,16.5 C18.2657539,16.9446774 17.9039797,17.3064516 17.4593023,17.3064516 C17.0146249,17.3064516 16.6528507,16.9446774 16.6528507,16.5 C16.6528507,16.0553226 17.0146249,15.6935484 17.4593023,15.6935484 C17.9039797,15.6935484 18.2657539,16.0553226 18.2657539,16.5 Z M19.1859152,17.5423185 L18.6474979,17.0039012 C18.783637,16.6832762 18.7838084,16.317127 18.6474979,15.9960988 L19.1859152,15.4576815 C19.5721955,16.0949496 19.5721955,16.9050504 19.1859152,17.5423185 Z M18.5016108,14.7733871 L17.9631935,15.3118044 C17.6425685,15.1756653 17.2764193,15.175494 16.9554011,15.3118044 L16.4169838,14.7733871 C17.0542519,14.3871069 17.8643527,14.3871069 18.5016108,14.7733871 Z M15.7326894,15.4576815 L16.2711068,15.9960988 C16.1349576,16.3167238 16.1347963,16.682873 16.2711068,17.0039012 L15.7326894,17.5423185 C15.3464092,16.9050504 15.3464092,16.0949496 15.7326894,15.4576815 Z" id="Shape" fill="#9099A1"></path>
                <g id="apple-brands" transform="translate(0.959302, 0.000000)" fill="#FFFFFF">
                    <path d="M19.2407588,14.2679967 C19.2287052,12.055764 20.2291565,10.3860407 22.2541663,9.15635275 C21.1211251,7.53485249 19.4095096,6.64272596 17.149454,6.46791738 C15.0099347,6.29913668 12.6715305,7.71568895 11.8157228,7.71568895 C10.9117005,7.71568895 8.8384762,6.5281962 7.21123616,6.5281962 C3.84827342,6.58244714 0.274372146,9.21060369 0.274372146,14.557335 C0.274372146,16.1366401 0.563659264,17.7681868 1.1422335,19.4519752 C1.91366582,21.6642079 4.69805433,27.0893017 7.60297914,26.9988834 C9.12173651,26.9627162 10.1945096,25.9198926 12.1713049,25.9198926 C14.087832,25.9198926 15.0822565,26.9988834 16.7757915,26.9988834 C19.7048236,26.9566883 22.2240322,22.0258808 22.9593037,19.8076202 C19.0298203,17.9570605 19.2407588,14.3825264 19.2407588,14.2679967 Z M15.8295816,4.37021444 C17.474902,2.41718068 17.3242317,0.638955491 17.2760171,0 C15.8235547,0.0843903479 14.1420734,0.988572647 13.1838098,2.10373082 C12.1291172,3.29725145 11.5083552,4.77408254 11.6409452,6.43777797 C13.2139439,6.55833561 14.6483258,5.75059942 15.8295816,4.37021444 Z" id="Shape"></path>
                </g>
            </g>
        </g>
    </g>
</svg>