<?xml version="1.0" encoding="UTF-8"?>
<svg width="17px" height="17px" viewBox="0 0 17 17" version="1.1" xmlns="http://www.w3.org/2000/svg" xmlns:xlink="http://www.w3.org/1999/xlink">
    <!-- Generator: Sketch 53.1 (72631) - https://sketchapp.com -->
    <title>9950897361548336152</title>
    <desc>Created with Sketch.</desc>
    <g id="Page-1" stroke="none" stroke-width="1" fill="none" fill-rule="evenodd">
        <g id="Artboard" transform="translate(-84.000000, -45.000000)" fill="#9099A1" fill-rule="nonzero">
            <g id="9950897361548336152" transform="translate(84.000000, 45.000000)">
                <path d="M10.6550362,12.2433927 C9.55211275,13.0293733 8.20261034,13.4916773 6.7451421,13.4916773 C3.01990279,13.4916773 0,10.4714627 0,6.74583866 C0,3.02021466 3.01990279,0 6.7451421,0 C10.4703814,0 13.4902842,3.02021466 13.4902842,6.74583866 C13.4902842,8.20345741 13.0280279,9.55309918 12.2421285,10.6561366 L16.6739259,15.0883916 C17.1105358,15.5250466 17.1068955,16.2237171 16.6737679,16.6568895 L16.6551695,16.6754898 C16.2231498,17.1075541 15.519874,17.1087328 15.0868336,16.6756478 L10.6550362,12.2433927 L10.6550362,12.2433927 Z M6.7451421,11.9044212 C9.59385454,11.9044212 11.9031919,9.59484529 11.9031919,6.74583866 C11.9031919,3.89683203 9.59385454,1.58725616 6.7451421,1.58725616 C3.89642965,1.58725616 1.58709226,3.89683203 1.58709226,6.74583866 C1.58709226,9.59484529 3.89642965,11.9044212 6.7451421,11.9044212 L6.7451421,11.9044212 Z" id="search"></path>
            </g>
        </g>
    </g>
</svg>