<?xml version="1.0" encoding="UTF-8"?>
<svg width="108px" height="108px" viewBox="0 0 108 108" version="1.1" xmlns="http://www.w3.org/2000/svg" xmlns:xlink="http://www.w3.org/1999/xlink">
    <!-- Generator: Sketch 53.1 (72631) - https://sketchapp.com -->
    <title>steamlogo</title>
    <desc>Created with Sketch.</desc>
    <g id="Page-1" stroke="none" stroke-width="1" fill="none" fill-rule="evenodd">
        <g id="steamlogo" fill="#FFFFFF" fill-rule="nonzero">
            <path d="M108,54 C108,83.8306452 83.7870968,108 53.9129032,108 C29.133871,108 8.27419355,91.3862903 1.87258065,68.7193548 L22.6016129,77.2766129 C23.9951613,84.266129 30.2008065,89.5572581 37.6040323,89.5572581 C46.1395161,89.5572581 53.2596774,82.5024194 52.8895161,73.5532258 L71.2887097,60.4451613 C82.6330645,60.7282258 92.1483871,51.5395161 92.1483871,40.0862903 C92.1483871,28.8508065 83.0032258,19.7274194 71.7459677,19.7274194 C60.4887097,19.7274194 51.3435484,28.8725806 51.3435484,40.0862903 L51.3435484,40.3475806 L38.4532258,59.0080645 C35.0782258,58.8120968 31.7685484,59.7483871 28.9814516,61.6427419 L0,49.6669355 C2.22096774,21.8612903 25.4975806,0 53.9129032,0 C83.7870968,0 108,24.1693548 108,54 Z M33.9024194,81.9362903 L27.2612903,79.1927419 C28.4816753,81.7268676 30.588851,83.7255857 33.183871,84.8104839 C39.041129,87.2491935 45.7693548,84.4620968 48.2080645,78.6266129 C49.383871,75.7959677 49.4056452,72.6822581 48.2298387,69.8516129 C47.0540323,67.0209677 44.8548387,64.8 42.0241935,63.6241935 C39.2153226,62.4483871 36.2104839,62.4919355 33.5540323,63.4935484 L40.4129032,66.3241935 C44.7241935,68.1096774 46.7709677,73.0524194 44.9637097,77.3637097 C43.1564516,81.6967742 38.2137097,83.7217742 33.9024194,81.9362903 L33.9024194,81.9362903 Z M71.7459677,53.6516129 C64.2556452,53.6516129 58.158871,47.5548387 58.158871,40.0862903 C58.158871,32.6177419 64.2556452,26.5209677 71.7459677,26.5209677 C79.2362903,26.5209677 85.3330645,32.6177419 85.3330645,40.0862903 C85.3330645,47.5548387 79.2580645,53.6516129 71.7459677,53.6516129 L71.7459677,53.6516129 Z M71.7677419,50.2548387 C77.4072581,50.2548387 81.9798387,45.6822581 81.9798387,40.0645161 C81.9798387,34.425 77.4072581,29.8741935 71.7677419,29.8741935 C66.1282258,29.8741935 61.5556452,34.4467742 61.5556452,40.0645161 C61.5774194,45.6822581 66.15,50.2548387 71.7677419,50.2548387 Z" id="Shape"></path>
        </g>
    </g>
</svg>