<?xml version="1.0" encoding="UTF-8"?>
<svg width="1654px" height="512px" viewBox="0 0 1654 512" version="1.1" xmlns="http://www.w3.org/2000/svg" xmlns:xlink="http://www.w3.org/1999/xlink">
    <!-- Generator: Sketch 53.1 (72631) - https://sketchapp.com -->
    <title>steam-seeklogo.com 2</title>
    <desc>Created with Sketch.</desc>
    <defs>
        <linearGradient x1="50%" y1="0%" x2="50%" y2="100%" id="linearGradient-1">
            <stop stop-color="#111D2E" offset="0%"></stop>
            <stop stop-color="#051839" offset="21.248%"></stop>
            <stop stop-color="#0A1B48" offset="40.695%"></stop>
            <stop stop-color="#132E62" offset="58.11%"></stop>
            <stop stop-color="#144B7E" offset="73.76%"></stop>
            <stop stop-color="#136497" offset="87.279%"></stop>
            <stop stop-color="#1387B8" offset="100%"></stop>
        </linearGradient>
        <linearGradient x1="0%" y1="57.5198178%" x2="119.860796%" y2="57.5198178%" id="linearGradient-2">
            <stop stop-color="#CFCFCD" offset="0%"></stop>
            <stop stop-color="#FFFFFF" offset="100%"></stop>
        </linearGradient>
    </defs>
    <g id="Page-1" stroke="none" stroke-width="1" fill="none" fill-rule="evenodd">
        <g id="steam-seeklogo.com-2">
            <g id="Steam_icon_logo" fill-rule="nonzero">
                <path d="M11.1870677,329.635708 C42.7867368,435.134077 140.536481,512 256.225564,512 C397.483308,512 512,397.382318 512,256 C512,114.615485 397.483308,0 256.225564,0 C120.673895,0 9.76,105.54012 1,238.991931 C17.552009,266.81133 24.0109173,284.017167 11.1894827,329.635708 L11.1870677,329.635708 Z" id="Path" fill="url(#linearGradient-1)"></path>
                <path d="M242.509283,192.448522 C242.509283,192.879457 242.509283,193.310392 242.531259,193.714943 L179.881075,284.765396 C169.732395,284.30368 159.548554,286.084586 149.892144,290.064141 C145.635325,291.801073 141.646617,293.933763 137.904044,296.39625 L0.334277242,239.737065 C0.335354083,239.737065 -2.84899737,292.130871 10.4170276,331.178877 L107.671177,371.326208 C112.554322,393.158793 127.524613,412.309026 149.610847,421.521365 C185.746563,436.626084 227.411529,419.410662 242.443354,383.242886 C246.355145,373.788695 248.179182,363.872788 247.915466,353.978867 L337.557006,289.888249 C338.282226,289.910235 339.029422,289.932222 339.754642,289.932222 C393.398917,289.932222 437,246.179106 437,192.448522 C437,138.71354 393.398917,95 339.754642,95 C286.132342,95 242.509283,138.71354 242.509283,192.448522 Z M227.477458,376.95475 C215.843177,404.899579 183.744517,418.157432 155.843341,406.526579 C142.971791,401.161875 133.253848,391.333914 127.647681,379.615115 L159.304616,392.74105 C179.881075,401.315781 203.488072,391.553779 212.041268,370.974424 C220.620836,350.373083 210.88751,326.71562 190.32204,318.140889 L157.597054,304.575224 C170.224665,299.782169 184.579619,299.606277 197.991786,305.190846 C211.513836,310.819387 222.005347,321.416876 227.565364,334.960554 C233.125381,348.504231 233.103404,363.455045 227.477458,376.95475 L227.477458,376.95475 Z M339.754642,257.392216 C304.043069,257.392216 274.968355,228.260117 274.968355,192.448522 C274.968355,156.665509 304.043069,127.524615 339.754642,127.524615 C375.48819,127.524615 404.562904,156.665509 404.562904,192.448522 C404.562904,228.260117 375.48819,257.392216 339.754642,257.392216 L339.754642,257.392216 Z M291.20888,192.349582 C291.20888,165.409536 313.009421,143.559362 339.864523,143.559362 C366.741602,143.559362 388.542143,165.409536 388.542143,192.349582 C388.542143,219.291827 366.741602,241.122214 339.864523,241.122214 C313.009421,241.122214 291.20888,219.291827 291.20888,192.349582 L291.20888,192.349582 Z" id="Shape" fill="url(#linearGradient-2)"></path>
            </g>
            <path d="M775.408,177.313 L758.925,206.551 C746.231,197.594 729.032,192.208 714.01,192.208 C696.845,192.208 686.228,199.376 686.228,212.22 C686.228,227.831 705.096,231.458 733.134,241.619 C763.275,252.372 780.603,265.024 780.603,292.874 C780.603,330.989 750.891,352.397 708.208,352.397 C687.4,352.397 662.301,346.975 643,335.138 L655.027,302.714 C670.7,311.078 689.452,316.026 706.166,316.026 C728.695,316.026 739.404,307.642 739.404,295.237 C739.404,281.053 723.075,276.78 696.71,267.977 C666.674,257.855 645.854,244.569 645.854,213.735 C645.854,178.973 673.45,159 713.157,159 C740.822,159 763.07,167.852 775.408,177.313" id="Fill-5" fill="#FFFFFF"></path>
            <polyline id="Fill-6" fill="#FFFFFF" points="904.43 196.142 904.43 349.546 865.631 349.546 865.631 196.142 809.294 196.142 809.294 162.558 960.586 162.558 960.586 196.142 904.43 196.142"></polyline>
            <polyline id="Fill-7" fill="#FFFFFF" points="1042.39 196.042 1042.39 238.176 1116.66 238.176 1116.66 271.76 1042.39 271.76 1042.39 315.658 1128.56 315.658 1128.56 349.546 1003.6 349.546 1003.6 162.558 1128.56 162.558 1128.56 196.042 1042.39 196.042"></polyline>
            <path d="M1215.17,313.244 L1202.9,349.546 L1162.23,349.546 L1231.71,162.556 L1270.76,162.556 L1342.21,349.546 L1300.15,349.546 L1287.62,313.244 L1215.17,313.244 Z M1251.01,207.166 L1225.72,282.032 L1276.85,282.032 L1251.01,207.166 L1251.01,207.166 Z" id="Fill-8" fill="#FFFFFF"></path>
            <polyline id="Fill-9" fill="#FFFFFF" points="1541.36 234.835 1490.66 344.094 1468.76 344.094 1418.87 235.809 1418.87 349.546 1381.71 349.546 1381.71 162.558 1418.78 162.558 1481.07 297.534 1541.12 162.558 1578.52 162.558 1578.52 349.546 1541.37 349.546 1541.36 234.835"></polyline>
            <path d="M1653.55,186.149 C1653.55,202.217 1641.61,212.232 1627.92,212.232 C1614.18,212.232 1602.21,202.217 1602.21,186.149 C1602.21,170.082 1614.18,160.131 1627.92,160.131 C1641.61,160.131 1653.55,170.082 1653.55,186.149 L1653.55,186.149 Z M1606.52,186.149 C1606.52,199.592 1616.12,208.032 1627.92,208.032 C1639.68,208.032 1649.23,199.592 1649.23,186.149 C1649.23,172.665 1639.68,164.348 1627.92,164.348 C1616.14,164.348 1606.52,172.765 1606.52,186.149 L1606.52,186.149 Z M1628.28,172.854 C1634.92,172.854 1637.15,176.403 1637.15,180.237 C1637.15,183.746 1635.09,186.104 1632.58,187.303 L1638.53,198.563 L1633.66,198.563 L1628.64,188.58 L1623.45,188.58 L1623.45,198.563 L1619.4,198.563 L1619.4,172.854 L1628.28,172.854 Z M1623.5,184.814 L1628.03,184.814 C1630.96,184.814 1632.69,182.959 1632.69,180.621 C1632.69,178.274 1631.45,176.755 1628.02,176.755 L1623.5,176.755 L1623.5,184.814 L1623.5,184.814 Z" id="Fill-10" fill="#FFFFFF"></path>
        </g>
    </g>
</svg>