<?xml version="1.0" encoding="UTF-8"?>
<svg width="51px" height="13px" viewBox="0 0 51 13" version="1.1" xmlns="http://www.w3.org/2000/svg" xmlns:xlink="http://www.w3.org/1999/xlink">
    <!-- Generator: Sketch 53.1 (72631) - https://sketchapp.com -->
    <title>Group</title>
    <desc>Created with Sketch.</desc>
    <g id="Page-1" stroke="none" stroke-width="1" fill="none" fill-rule="evenodd" opacity="0.846888951">
        <g id="Artboard" transform="translate(-68.000000, -61.000000)" fill="#FFFFFF" fill-rule="nonzero">
            <g id="Group" transform="translate(68.000000, 61.000000)">
                <path d="M36.828125,5 L36.0400391,5 L36.0400391,2.14648438 L36.0166016,2.14648438 L34.8681641,5 L34.3115234,5 L33.1630859,2.14648438 L33.1396484,2.14648438 L33.1396484,5 L32.3515625,5 L32.3515625,0.772460938 L33.3769531,0.772460938 L34.578125,3.80761719 L34.6015625,3.80761719 L35.8027344,0.772460938 L36.828125,0.772460938 L36.828125,5 Z M38.4160156,0.772460938 L38.4160156,3.41796875 C38.4160156,3.95996094 38.7353516,4.31445312 39.3037109,4.31445312 C39.8691406,4.31445312 40.1884766,3.95996094 40.1884766,3.41796875 L40.1884766,0.772460938 L41.0732422,0.772460938 L41.0732422,3.50585938 C41.0732422,4.4375 40.3847656,5.0703125 39.3037109,5.0703125 C38.2197266,5.0703125 37.53125,4.4375 37.53125,3.50585938 L37.53125,0.772460938 L38.4160156,0.772460938 Z M41.6152344,3.79296875 L42.4501953,3.79296875 C42.5058594,4.14746094 42.8632812,4.35839844 43.34375,4.35839844 C43.8154297,4.35839844 44.1376953,4.12988281 44.1376953,3.81933594 C44.1376953,3.54101562 43.9384766,3.3828125 43.4082031,3.27441406 L42.9628906,3.18652344 C42.1191406,3.01953125 41.7060547,2.61523438 41.7060547,1.98535156 C41.7060547,1.21191406 42.3798828,0.69921875 43.3203125,0.69921875 C44.3076172,0.69921875 44.9287109,1.21484375 44.9433594,1.99121094 L44.1083984,1.99121094 C44.0791016,1.63085938 43.765625,1.4140625 43.3203125,1.4140625 C42.8837891,1.4140625 42.5908203,1.61914062 42.5908203,1.9296875 C42.5908203,2.19042969 42.7958984,2.3515625 43.2939453,2.45117188 L43.7421875,2.54199219 C44.6357422,2.72070312 45.0253906,3.08105469 45.0253906,3.72265625 C45.0253906,4.54882812 44.3779297,5.0703125 43.3203125,5.0703125 C42.3125,5.0703125 41.6416016,4.58984375 41.6152344,3.79296875 Z M46.4492188,5 L45.5644531,5 L45.5644531,0.772460938 L46.4492188,0.772460938 L46.4492188,5 Z M49.0214844,5.0703125 C47.7910156,5.0703125 47.0205078,4.25 47.0205078,2.88476562 C47.0205078,1.52246094 47.796875,0.69921875 49.0214844,0.69921875 C50.0380859,0.69921875 50.8115234,1.34375 50.8789062,2.29003906 L50.0175781,2.29003906 C49.9355469,1.77148438 49.5371094,1.43164062 49.0214844,1.43164062 C48.3535156,1.43164062 47.9228516,1.99121094 47.9228516,2.88183594 C47.9228516,3.78417969 48.3476562,4.34082031 49.0244141,4.34082031 C49.5488281,4.34082031 49.9267578,4.03320312 50.0205078,3.53222656 L50.8818359,3.53222656 C50.7822266,4.47558594 50.0585938,5.0703125 49.0214844,5.0703125 Z" id="MUSIC"></path>
                <path d="M24.2279135,0 C22.1474353,0 20.455351,1.71167333 20.455351,3.81575559 C20.455351,3.8326075 20.455351,3.84945942 20.456303,3.86534837 L18.0259845,7.43025113 C17.6323548,7.41291773 17.2372972,7.48225133 16.8627064,7.63825194 C16.6975437,7.70614109 16.5428525,7.7899192 16.3976807,7.88621587 L5.44506463,3.3063462 C5.26086306,2.44400951 4.67779606,1.68278432 3.81342899,1.31781994 C2.41168833,0.727521349 0.796235762,1.40063508 0.211740845,2.81908504 C-0.372278099,4.23657204 0.293608211,5.87072654 1.69534887,6.46150662 C2.37408645,6.74750773 3.1223161,6.74895218 3.80295758,6.46632145 C3.95955271,6.40083972 4.10710436,6.31995051 4.24799239,6.22991313 L15.2248831,10.8203754 C15.4143204,11.6745269 15.9950075,12.424678 16.851759,12.785309 C18.2534997,13.377052 19.8694282,12.7029753 20.4529712,11.2864513 C20.6043306,10.9166721 20.6752506,10.528115 20.6647792,10.1405209 L24.1422384,7.63102969 C24.1707967,7.63199266 24.1993551,7.63247414 24.2279135,7.63247414 C26.3083917,7.63247414 28,5.91983785 28,3.81575559 C28,1.71167333 26.3083917,3.84878813e-15 24.2279135,3.84878813e-15 M1.93761916,5.87361544 C1.12275328,5.53031781 0.630121164,4.72961099 0.630121164,3.88701512 C0.630121164,3.61160664 0.6824782,3.33282778 0.793855896,3.06416007 C1.24365044,1.9697484 2.49022388,1.45022786 3.5711587,1.90571112 C4.08140182,2.12045269 4.46170429,2.51430608 4.67779606,2.98471532 L3.42075121,2.45893549 C2.62397231,2.12334159 1.70820014,2.50467641 1.37549497,3.31116103 C1.04374175,4.11812713 1.42118839,5.04546407 2.21796729,5.38105797 L3.47881992,5.90780076 C2.97666835,6.09317185 2.43310711,6.08354219 1.93761916,5.87361544 M19.87276,11.0404133 C19.4210616,12.1343435 18.1759161,12.653864 17.0935533,12.1983808 C16.5942576,11.9879726 16.2172869,11.6032674 15.9997672,11.1444137 L17.2277777,11.658638 C18.0259845,11.9947133 18.9417567,11.6124155 19.2735099,10.8064124 C19.6062151,9.99992779 19.2287685,9.07355382 18.4310376,8.73747844 L17.1616175,8.2064023 C17.6513937,8.01862379 18.2082822,8.01188302 18.7285208,8.23047647 C19.2530431,8.45099584 19.6600001,8.86555301 19.8756158,9.39614767 C20.0917076,9.92674232 20.0907557,10.5117446 19.87276,11.0404133 M24.2279135,6.35895067 C22.8423559,6.35895067 21.7147758,5.21783512 21.7147758,3.81575559 C21.7147758,2.41463902 22.8423559,1.27352347 24.2279135,1.27352347 C25.6134711,1.27352347 26.7415272,2.41463902 26.7415272,3.81575559 C26.7415272,5.21783512 25.6134711,6.35895067 24.2279135,6.35895067 M24.2317213,5.7214667 C23.1898163,5.7214667 22.3444881,4.86683375 22.3444881,3.81190372 C22.3444881,2.75697369 23.1898163,1.90137777 24.2317213,1.90137777 C25.2745783,1.90137777 26.1203824,2.75697369 26.1203824,3.81190372 C26.1203824,4.86683375 25.2745783,5.7214667 24.2317213,5.7214667" id="Shape"></path>
            </g>
        </g>
    </g>
</svg>