<?xml version="1.0" encoding="UTF-8"?>
<svg width="20px" height="17px" viewBox="0 0 20 17" version="1.1" xmlns="http://www.w3.org/2000/svg" xmlns:xlink="http://www.w3.org/1999/xlink">
    <!-- Generator: Sketch 53.1 (72631) - https://sketchapp.com -->
    <title>store</title>
    <desc>Created with Sketch.</desc>
    <g id="Page-1" stroke="none" stroke-width="1" fill="none" fill-rule="evenodd">
        <g id="Artboard" transform="translate(-6.000000, -13.000000)" fill="#9099A1" fill-rule="nonzero">
            <g id="store" transform="translate(6.000000, 13.000000)">
                <path d="M18.3375047,10.0047324 C18.2512894,10.367543 17.9139977,10.625 17.5249004,10.625 L7.3462519,10.625 L7.5735089,11.6875 L16.8935807,11.6875 C17.4283378,11.6875 17.8246921,12.1623379 17.7061851,12.6609824 L17.5146226,13.4670215 C18.1636158,13.7682734 18.6111159,14.4044453 18.6111159,15.140625 C18.6111159,16.1675312 17.7405601,17 16.666671,17 C15.5927818,17 14.722226,16.1675312 14.722226,15.140625 C14.722226,14.6201992 14.9460802,14.1500098 15.3063581,13.8125 L8.02694652,13.8125 C8.38725911,14.1500098 8.61111333,14.6201992 8.61111333,15.140625 C8.61111333,16.1675312 7.74055755,17 6.66666839,17 C5.59277922,17 4.72222344,16.1675312 4.72222344,15.140625 C4.72222344,14.4507305 5.11545271,13.8490234 5.69899453,13.5281152 L3.25982723,2.125 L0.833333548,2.125 C0.373090374,2.125 3.19744231e-14,1.76823242 3.19744231e-14,1.328125 L3.19744231e-14,0.796875 C3.19744231e-14,0.356767578 0.373090374,0 0.833333548,0 L4.39336919,0 C4.78923735,0 5.13048743,0.266322266 5.20979301,0.637167969 L5.52805698,2.125 L19.1663244,2.125 C19.7010815,2.125 20.0974357,2.59983789 19.9789288,3.09848242 L18.3375047,10.0047324 Z M6.7,16.1 C7.25228475,16.1 7.7,15.6522847 7.7,15.1 C7.7,14.5477153 7.25228475,14.1 6.7,14.1 C6.14771525,14.1 5.7,14.5477153 5.7,15.1 C5.7,15.6522847 6.14771525,16.1 6.7,16.1 Z M16.7,16.1 C17.2522847,16.1 17.7,15.6522847 17.7,15.1 C17.7,14.5477153 17.2522847,14.1 16.7,14.1 C16.1477153,14.1 15.7,14.5477153 15.7,15.1 C15.7,15.6522847 16.1477153,16.1 16.7,16.1 Z M5.7,3.59962656 L7.05244433,9.44131816 L16.7,9.44131816 L17.9977717,3.59962656 L5.7,3.59962656 Z" id="Combined-Shape"></path>
            </g>
        </g>
    </g>
</svg>