<?xml version="1.0" encoding="UTF-8"?>
<svg width="18px" height="17px" viewBox="0 0 18 17" version="1.1" xmlns="http://www.w3.org/2000/svg" xmlns:xlink="http://www.w3.org/1999/xlink">
    <!-- Generator: Sketch 53.1 (72631) - https://sketchapp.com -->
    <title>Shape</title>
    <desc>Created with Sketch.</desc>
    <g id="Page-1" stroke="none" stroke-width="1" fill="none" fill-rule="evenodd">
        <g id="Artboard" transform="translate(-144.000000, -67.000000)" fill="#9099A1" fill-rule="nonzero">
            <g id="life-ring-regular" transform="translate(144.000000, 67.000000)">
                <path d="M9,17 C13.6944335,17 17.5,13.1944335 17.5,8.5 C17.5,3.80556653 13.6944335,0 9,0 C4.30556653,0 0.5,3.80556653 0.5,8.5 C0.5,13.1944335 4.30556653,17 9,17 Z M5.45611694,14.3704839 L7.28673589,12.5398649 C8.37686089,13.0027722 9.62176815,13.0033206 10.7132641,12.5398649 L12.5438831,14.3704839 C10.3771714,15.6838367 7.62282863,15.6838367 5.45611694,14.3704839 Z M11.7419355,8.5 C11.7419355,10.0119032 10.5119032,11.2419355 9,11.2419355 C7.48809677,11.2419355 6.25806452,10.0119032 6.25806452,8.5 C6.25806452,6.98809677 7.48809677,5.75806452 9,5.75806452 C10.5119032,5.75806452 11.7419355,6.98809677 11.7419355,8.5 Z M14.8704839,12.0438831 L13.0398649,10.2132641 C13.5027379,9.12313911 13.5033206,7.87823185 13.0398649,6.78673589 L14.8704839,4.95611694 C16.1838367,7.12282863 16.1838367,9.87717137 14.8704839,12.0438831 Z M12.5438488,2.62951613 L10.7132298,4.46013508 C9.62310484,3.9972621 8.37819758,3.99667944 7.28673589,4.46013508 L5.45611694,2.62951613 C7.62282863,1.31616331 10.3771714,1.31616331 12.5438488,2.62951613 Z M3.12951613,4.95611694 L4.96013508,6.78673589 C4.49722782,7.87686089 4.49667944,9.12176815 4.96013508,10.2132641 L3.12951613,12.0438831 C1.81616331,9.87717137 1.81616331,7.12282863 3.12951613,4.95611694 Z" id="Shape"></path>
            </g>
        </g>
    </g>
</svg>