<?xml version="1.0" encoding="UTF-8"?>
<svg width="62px" height="62px" viewBox="0 0 62 62" version="1.1" xmlns="http://www.w3.org/2000/svg" xmlns:xlink="http://www.w3.org/1999/xlink">
    <!-- Generator: Sketch 53.1 (72631) - https://sketchapp.com -->
    <title>dota2</title>
    <desc>Created with Sketch.</desc>
    <defs>
        <linearGradient x1="50%" y1="0%" x2="50%" y2="100%" id="linearGradient-1">
            <stop stop-color="#2C3445" offset="0%"></stop>
            <stop stop-color="#232731" offset="100%"></stop>
        </linearGradient>
        <rect id="path-2" x="0" y="0" width="62" height="62" rx="2"></rect>
    </defs>
    <g id="Page-1" stroke="none" stroke-width="1" fill="none" fill-rule="evenodd">
        <g id="dota2">
            <mask id="mask-3" fill="white">
                <use xlink:href="#path-2"></use>
            </mask>
            <use id="Mask" fill="url(#linearGradient-1)" xlink:href="#path-2"></use>
            <g id="user-friends-solid(1)" mask="url(#mask-3)" fill="#FFFFFF" fill-rule="nonzero" opacity="0.85">
                <g transform="translate(12.000000, 18.000000)" id="Shape">
                    <path d="M11.85,12.5 C15.4285937,12.5 18.325,9.70424107 18.325,6.25 C18.325,2.79575893 15.4285937,0 11.85,0 C8.27140625,0 5.375,2.79575893 5.375,6.25 C5.375,9.70424107 8.27140625,12.5 11.85,12.5 Z M16.29,14.2857143 L15.8101563,14.2857143 C14.6076563,14.84375 13.2721875,15.1785714 11.85,15.1785714 C10.4278125,15.1785714 9.098125,14.84375 7.88984375,14.2857143 L7.41,14.2857143 C3.733125,14.2857143 0.75,17.1651786 0.75,20.7142857 L0.75,22.3214286 C0.75,23.8002232 1.99296875,25 3.525,25 L20.175,25 C21.7070313,25 22.95,23.8002232 22.95,22.3214286 L22.95,20.7142857 C22.95,17.1651786 19.966875,14.2857143 16.29,14.2857143 Z M28.5,12.5 C31.5640625,12.5 34.05,10.1004464 34.05,7.14285714 C34.05,4.18526786 31.5640625,1.78571429 28.5,1.78571429 C25.4359375,1.78571429 22.95,4.18526786 22.95,7.14285714 C22.95,10.1004464 25.4359375,12.5 28.5,12.5 Z M31.275,14.2857143 L31.0553125,14.2857143 C30.2517187,14.5535714 29.401875,14.7321429 28.5,14.7321429 C27.598125,14.7321429 26.7482813,14.5535714 25.9446875,14.2857143 L25.725,14.2857143 C24.545625,14.2857143 23.45875,14.6149554 22.5048438,15.1450893 C23.9154688,16.6127232 24.8,18.5602679 24.8,20.7142857 L24.8,22.8571429 C24.8,22.9799107 24.7710938,23.0970982 24.7653125,23.2142857 L34.975,23.2142857 C36.5070312,23.2142857 37.75,22.0145089 37.75,20.5357143 C37.75,17.0814732 34.8535937,14.2857143 31.275,14.2857143 L31.275,14.2857143 Z"></path>
                </g>
            </g>
        </g>
    </g>
</svg>