<?xml version="1.0" encoding="UTF-8"?>
<svg width="15px" height="17px" viewBox="0 0 15 17" version="1.1" xmlns="http://www.w3.org/2000/svg" xmlns:xlink="http://www.w3.org/1999/xlink">
    <!-- Generator: Sketch 53.1 (72631) - https://sketchapp.com -->
    <title>Shape</title>
    <desc>Created with Sketch.</desc>
    <g id="Page-1" stroke="none" stroke-width="1" fill="none" fill-rule="evenodd">
        <g id="Artboard" transform="translate(-88.000000, -67.000000)" fill="#9099A1" fill-rule="nonzero">
            <path d="M98.5,77.09375 C97.5390625,77.09375 97.0770089,77.625 95.5,77.625 C93.9229911,77.625 93.4642857,77.09375 92.5,77.09375 C90.015625,77.09375 88,79.0925781 88,81.55625 L88,82.40625 C88,83.2861328 88.7198661,84 89.6071429,84 L101.392857,84 C102.280134,84 103,83.2861328 103,82.40625 L103,81.55625 C103,79.0925781 100.984375,77.09375 98.5,77.09375 Z M101.392857,82.40625 L89.6071429,82.40625 L89.6071429,81.55625 C89.6071429,79.9757812 90.90625,78.6875 92.5,78.6875 C92.9888393,78.6875 93.7823661,79.21875 95.5,79.21875 C97.2310268,79.21875 98.0078125,78.6875 98.5,78.6875 C100.09375,78.6875 101.392857,79.9757812 101.392857,81.55625 L101.392857,82.40625 Z M95.5,76.5625 C98.1618304,76.5625 100.321429,74.4208984 100.321429,71.78125 C100.321429,69.1416016 98.1618304,67 95.5,67 C92.8381696,67 90.6785714,69.1416016 90.6785714,71.78125 C90.6785714,74.4208984 92.8381696,76.5625 95.5,76.5625 Z M95.5,68.59375 C97.2712054,68.59375 98.7142857,70.0248047 98.7142857,71.78125 C98.7142857,73.5376953 97.2712054,74.96875 95.5,74.96875 C93.7287946,74.96875 92.2857143,73.5376953 92.2857143,71.78125 C92.2857143,70.0248047 93.7287946,68.59375 95.5,68.59375 Z" id="Shape"></path>
        </g>
    </g>
</svg>