<?xml version="1.0" encoding="UTF-8"?>
<svg width="15px" height="17px" viewBox="0 0 15 17" version="1.1" xmlns="http://www.w3.org/2000/svg" xmlns:xlink="http://www.w3.org/1999/xlink">
    <!-- Generator: Sketch 53.1 (72631) - https://sketchapp.com -->
    <title>profile</title>
    <desc>Created with Sketch.</desc>
    <g id="Page-1" stroke="none" stroke-width="1" fill="none" fill-rule="evenodd">
        <g id="Artboard" transform="translate(-83.000000, -54.000000)" fill="#9099A1" fill-rule="nonzero">
            <g id="profile" transform="translate(83.000000, 54.000000)">
                <path d="M10.5,10.09375 C9.5390625,10.09375 9.0770089,10.625 7.5,10.625 C5.9229911,10.625 5.4642857,10.09375 4.5,10.09375 C2.015625,10.09375 0,12.0925781 0,14.55625 L0,15.40625 C0,16.2861328 0.7198661,17 1.6071429,17 L13.392857,17 C14.280134,17 15,16.2861328 15,15.40625 L15,14.55625 C15,12.0925781 12.984375,10.09375 10.5,10.09375 Z M13.392857,15.40625 L1.6071429,15.40625 L1.6071429,14.55625 C1.6071429,12.9757812 2.90625,11.6875 4.5,11.6875 C4.9888393,11.6875 5.7823661,12.21875 7.5,12.21875 C9.2310268,12.21875 10.0078125,11.6875 10.5,11.6875 C12.09375,11.6875 13.392857,12.9757812 13.392857,14.55625 L13.392857,15.40625 Z M7.5,9.5625 C10.1618304,9.5625 12.321429,7.4208984 12.321429,4.78125 C12.321429,2.1416016 10.1618304,0 7.5,0 C4.8381696,0 2.6785714,2.1416016 2.6785714,4.78125 C2.6785714,7.4208984 4.8381696,9.5625 7.5,9.5625 Z M7.5,1.59375 C9.2712054,1.59375 10.7142857,3.0248047 10.7142857,4.78125 C10.7142857,6.5376953 9.2712054,7.96875 7.5,7.96875 C5.7287946,7.96875 4.2857143,6.5376953 4.2857143,4.78125 C4.2857143,3.0248047 5.7287946,1.59375 7.5,1.59375 Z" id="Shape"></path>
            </g>
        </g>
    </g>
</svg>