<?xml version="1.0" encoding="UTF-8"?>
<svg width="62px" height="62px" viewBox="0 0 62 62" version="1.1" xmlns="http://www.w3.org/2000/svg" xmlns:xlink="http://www.w3.org/1999/xlink">
    <!-- Generator: Sketch 53.1 (72631) - https://sketchapp.com -->
    <title>dota2</title>
    <desc>Created with Sketch.</desc>
    <defs>
        <linearGradient x1="50%" y1="0%" x2="50%" y2="100%" id="linearGradient-1">
            <stop stop-color="#2C3445" offset="0%"></stop>
            <stop stop-color="#232731" offset="100%"></stop>
        </linearGradient>
        <rect id="path-2" x="0" y="0" width="62" height="62" rx="2"></rect>
    </defs>
    <g id="Page-1" stroke="none" stroke-width="1" fill="none" fill-rule="evenodd">
        <g id="dota2">
            <mask id="mask-3" fill="white">
                <use xlink:href="#path-2"></use>
            </mask>
            <use id="Mask" fill="url(#linearGradient-1)" xlink:href="#path-2"></use>
            <g id="shopping-bag-solid(2)" mask="url(#mask-3)" fill="#FFFFFF" fill-rule="nonzero" opacity="0.85">
                <g transform="translate(17.000000, 15.000000)" id="Shape">
                    <path d="M22.1666667,10 L22.1666667,8 C22.1666667,3.58875 18.5778542,0 14.1666667,0 C9.75541667,0 6.16666667,3.58875 6.16666667,8 L6.16666667,10 L0.166666667,10 L0.166666667,27 C0.166666667,29.7614375 2.40522917,32 5.16666667,32 L23.1666667,32 C25.9281042,32 28.1666667,29.7614375 28.1666667,27 L28.1666667,10 L22.1666667,10 Z M10.1666667,8 C10.1666667,5.794375 11.9610417,4 14.1666667,4 C16.3722917,4 18.1666667,5.794375 18.1666667,8 L18.1666667,10 L10.1666667,10 L10.1666667,8 Z M20.1666667,15.5 C19.3382292,15.5 18.6666667,14.8284375 18.6666667,14 C18.6666667,13.1715625 19.3382292,12.5 20.1666667,12.5 C20.9951042,12.5 21.6666667,13.1715625 21.6666667,14 C21.6666667,14.8284375 20.9951042,15.5 20.1666667,15.5 Z M8.16666667,15.5 C7.33822917,15.5 6.66666667,14.8284375 6.66666667,14 C6.66666667,13.1715625 7.33822917,12.5 8.16666667,12.5 C8.99510417,12.5 9.66666667,13.1715625 9.66666667,14 C9.66666667,14.8284375 8.99510417,15.5 8.16666667,15.5 Z"></path>
                </g>
            </g>
        </g>
    </g>
</svg>