<?xml version="1.0" encoding="UTF-8"?>
<svg width="112px" height="27px" viewBox="0 0 112 27" version="1.1" xmlns="http://www.w3.org/2000/svg" xmlns:xlink="http://www.w3.org/1999/xlink">
    <!-- Generator: Sketch 53.1 (72631) - https://sketchapp.com -->
    <title>Steam_logo</title>
    <desc>Created with Sketch.</desc>
    <defs>
        <linearGradient x1="50%" y1="0%" x2="50%" y2="100%" id="linearGradient-1">
            <stop stop-color="#F6F6F6" offset="0%"></stop>
            <stop stop-color="#989693" offset="100%"></stop>
        </linearGradient>
        <linearGradient x1="50%" y1="0%" x2="50%" y2="100%" id="linearGradient-2">
            <stop stop-color="#EFEFEE" offset="0%"></stop>
            <stop stop-color="#84827E" offset="100%"></stop>
        </linearGradient>
    </defs>
    <g id="Page-1" stroke="none" stroke-width="1" fill="none" fill-rule="evenodd">
        <g id="Steam_logo" fill-rule="nonzero">
            <path d="M68.372,11.281 C67.794,11.731 67.056,11.955 66.149,11.955 C65.495,11.955 64.923,11.872 64.434,11.703 C63.948,11.536 63.504,11.255 63.106,10.857 L64.161,9.805 C64.409,10.054 64.703,10.234 65.044,10.343 C65.384,10.454 65.76,10.509 66.174,10.509 C67.156,10.509 67.649,10.162 67.649,9.474 C67.649,9.183 67.574,8.957 67.426,8.796 C67.278,8.636 67.02,8.53 66.652,8.474 L66.183,8.402 L65.644,8.334 C64.932,8.231 64.391,8.002 64.024,7.643 C63.625,7.246 63.426,6.699 63.426,6.006 C63.426,5.25 63.688,4.6384 64.21,4.1764 C64.734,3.7114 65.44,3.4804 66.333,3.4804 C66.915,3.4804 67.423,3.5544 67.852,3.7084 C68.283,3.8614 68.673,4.1094 69.022,4.4524 L67.993,5.47 C67.757,5.245 67.499,5.093 67.215,5.015 C66.93,4.9374 66.622,4.8974 66.284,4.8974 C65.87,4.8974 65.552,4.9954 65.33,5.195 C65.107,5.394 64.996,5.644 64.996,5.948 C64.996,6.166 65.082,6.364 65.253,6.536 C65.426,6.711 65.679,6.823 66.015,6.87 L66.517,6.939 L66.999,7.01 C67.373,7.065 67.686,7.144 67.94,7.245 C68.194,7.344 68.411,7.483 68.59,7.655 C69.02,8.06 69.234,8.65 69.234,9.425 C69.234,10.214 68.945,10.831 68.372,11.281 L68.372,11.281 Z M75.36,4.9886 L75.36,11.879 L73.73,11.879 L73.73,4.9886 L71.552,4.9886 L71.552,3.5416 L77.538,3.5416 L77.538,4.9886 L75.36,4.9886 L75.36,4.9886 Z M80.967,11.878 L80.967,3.5411 L86.463,3.5411 L86.463,4.9881 L82.601,4.9881 L82.601,6.955 L85.89,6.955 L85.89,8.402 L82.601,8.402 L82.601,10.431 L86.463,10.431 L86.463,11.878 L80.967,11.878 Z M94.898,11.878 L94.408,10.401 L91.445,10.401 L90.941,11.878 L89.244,11.878 L92.277,3.5411 L93.552,3.5411 L96.6,11.878 L94.898,11.878 L94.898,11.878 Z M92.956,6 L91.902,9.028 L93.974,9.028 L92.956,6 Z M105.41,11.878 L105.41,7.021 L103.83,10.183 L102.73,10.183 L101.13,7.021 L101.13,11.878 L99.5,11.878 L99.5,3.5411 L101.11,3.5411 L103.28,8.048 L105.44,3.5411 L107.05,3.5411 L107.05,11.878 L105.41,11.878 L105.41,11.878 Z M110.58,3.2844 C111.18,3.2844 111.66,3.7704 111.66,4.3784 C111.66,4.9954 111.18,5.475 110.58,5.475 C109.98,5.475 109.5,4.9954 109.5,4.3784 C109.5,3.7704 109.98,3.2844 110.58,3.2844 Z M110.58,3.4564 C110.1,3.4564 109.71,3.8674 109.71,4.3784 C109.71,4.8984 110.1,5.306 110.58,5.306 C111.07,5.311 111.46,4.8984 111.46,4.3834 C111.46,3.8674 111.07,3.4564 110.58,3.4564 L110.58,3.4564 Z M110.38,5.015 L110.18,5.015 L110.18,3.7954 C110.28,3.7814 110.38,3.7664 110.53,3.7664 C110.71,3.7664 110.83,3.8054 110.91,3.8584 C110.98,3.9124 111.02,3.9944 111.02,4.1114 C111.02,4.2724 110.91,4.3674 110.78,4.4074 L110.78,4.4164 C110.89,4.4354 110.96,4.5334 110.98,4.7124 C111.01,4.9024 111.04,4.9764 111.06,5.015 L110.86,5.015 C110.83,4.9764 110.8,4.8644 110.77,4.7044 C110.74,4.5484 110.67,4.4914 110.51,4.4914 L110.38,4.4914 L110.38,5.015 L110.38,5.015 Z M110.38,4.3384 L110.52,4.3384 C110.68,4.3384 110.81,4.2814 110.81,4.1304 C110.81,4.0234 110.73,3.9174 110.52,3.9174 C110.45,3.9174 110.41,3.9214 110.38,3.9274 L110.38,4.3384 Z" id="Shape" fill="url(#linearGradient-1)"></path>
            <path d="M51.542,0 C47.171,0 43.616,3.555 43.616,7.925 C43.616,7.96 43.616,7.995 43.618,8.028 L38.512,15.432 C37.685,15.396 36.855,15.54 36.068,15.864 C35.721,16.005 35.396,16.179 35.091,16.379 L12.08,6.867 C11.693,5.076 10.468,3.495 8.652,2.737 C5.707,1.511 2.313,2.909 1.085,5.855 C-0.142,8.799 1.257,12.193 4.202,13.42 C5.628,14.014 7.2,14.017 8.63,13.43 C8.959,13.294 9.269,13.126 9.565,12.939 L32.627,22.473 C33.025,24.247 34.245,25.805 36.045,26.554 C38.99,27.783 42.385,26.383 43.611,23.441 C43.929,22.673 44.078,21.866 44.056,21.061 L51.362,15.849 C51.422,15.851 51.482,15.852 51.542,15.852 C55.913,15.852 59.467,12.295 59.467,7.925 C59.467,3.555 55.913,7.99360578e-15 51.542,7.99360578e-15 M4.711,12.199 C2.999,11.486 1.964,9.823 1.964,8.073 C1.964,7.501 2.074,6.922 2.308,6.364 C3.253,4.091 5.872,3.012 8.143,3.958 C9.215,4.404 10.014,5.222 10.468,6.199 L7.827,5.107 C6.153,4.41 4.229,5.202 3.53,6.877 C2.833,8.553 3.626,10.479 5.3,11.176 L7.949,12.27 C6.894,12.655 5.752,12.635 4.711,12.199 M42.392,22.93 C41.443,25.202 38.827,26.281 36.553,25.335 C35.504,24.898 34.712,24.099 34.255,23.146 L36.835,24.214 C38.512,24.912 40.436,24.118 41.133,22.444 C41.832,20.769 41.039,18.845 39.363,18.147 L36.696,17.044 C37.725,16.654 38.895,16.64 39.988,17.094 C41.09,17.552 41.945,18.413 42.398,19.515 C42.852,20.617 42.85,21.832 42.392,22.93 M51.542,13.207 C48.631,13.207 46.262,10.837 46.262,7.925 C46.262,5.015 48.631,2.645 51.542,2.645 C54.453,2.645 56.823,5.015 56.823,7.925 C56.823,10.837 54.453,13.207 51.542,13.207 M51.55,11.883 C49.361,11.883 47.585,10.108 47.585,7.917 C47.585,5.726 49.361,3.949 51.55,3.949 C53.741,3.949 55.518,5.726 55.518,7.917 C55.518,10.108 53.741,11.883 51.55,11.883" id="Shape" fill="url(#linearGradient-2)"></path>
        </g>
    </g>
</svg>