<?xml version="1.0" encoding="UTF-8"?>
<svg width="20px" height="17px" viewBox="0 0 20 17" version="1.1" xmlns="http://www.w3.org/2000/svg" xmlns:xlink="http://www.w3.org/1999/xlink">
    <!-- Generator: Sketch 53.1 (72631) - https://sketchapp.com -->
    <title>store</title>
    <desc>Created with Sketch.</desc>
    <g id="Page-1" stroke="none" stroke-width="1" fill="none" fill-rule="evenodd">
        <g id="Artboard" transform="translate(-6.000000, -36.000000)" fill="#FFFFFF" fill-rule="nonzero">
            <g id="store" transform="translate(6.000000, 36.000000)">
                <path d="M18.3375047,10.0047324 L19.9789288,3.09848242 C20.0974357,2.59983789 19.7010815,2.125 19.1663244,2.125 L5.52805698,2.125 L5.20979301,0.637167969 C5.13048743,0.266322266 4.78923735,0 4.39336919,0 L0.833333548,0 C0.373090374,0 0,0.356767578 0,0.796875 L0,1.328125 C0,1.76823242 0.373090374,2.125 0.833333548,2.125 L3.25982723,2.125 L5.69899453,13.5281152 C5.11545271,13.8490234 4.72222344,14.4507305 4.72222344,15.140625 C4.72222344,16.1675312 5.59277922,17 6.66666839,17 C7.74055755,17 8.61111333,16.1675312 8.61111333,15.140625 C8.61111333,14.6201992 8.38725911,14.1500098 8.02694652,13.8125 L15.3063581,13.8125 C14.9460802,14.1500098 14.722226,14.6201992 14.722226,15.140625 C14.722226,16.1675312 15.5927818,17 16.666671,17 C17.7405601,17 18.6111159,16.1675312 18.6111159,15.140625 C18.6111159,14.4044453 18.1636158,13.7682734 17.5146226,13.4670215 L17.7061851,12.6609824 C17.8246921,12.1623379 17.4283378,11.6875 16.8935807,11.6875 L7.5735089,11.6875 L7.3462519,10.625 L17.5249004,10.625 C17.9139977,10.625 18.2512894,10.367543 18.3375047,10.0047324 Z" id="Path"></path>
            </g>
        </g>
    </g>
</svg>