<?xml version="1.0" encoding="UTF-8"?>
<svg width="18px" height="17px" viewBox="0 0 18 17" version="1.1" xmlns="http://www.w3.org/2000/svg" xmlns:xlink="http://www.w3.org/1999/xlink">
    <!-- Generator: Sketch 53.1 (72631) - https://sketchapp.com -->
    <title>support-active</title>
    <desc>Created with Sketch.</desc>
    <defs>
        <linearGradient x1="0%" y1="0%" x2="100%" y2="100%" id="linearGradient-1">
            <stop stop-color="#027AFF" offset="0%"></stop>
            <stop stop-color="#AE06D2" offset="100%"></stop>
        </linearGradient>
    </defs>
    <g id="Page-1" stroke="none" stroke-width="1" fill="none" fill-rule="evenodd">
        <g id="Artboard" transform="translate(-219.000000, -104.000000)" fill="url(#linearGradient-1)" fill-rule="nonzero">
            <g id="support-active" transform="translate(219.000000, 104.000000)">
                <path d="M9,0 C4.30556653,0 0.5,3.80556653 0.5,8.5 C0.5,13.1944335 4.30556653,17 9,17 C13.6944335,17 17.5,13.1944335 17.5,8.5 C17.5,3.80556653 13.6944335,0 9,0 Z M14.9532903,4.09778831 L12.7803407,6.2707379 C12.4037702,5.63464315 11.866248,5.09677823 11.2292621,4.71965927 L13.4022117,2.54670968 C13.9926001,2.98476322 14.5152368,3.50739986 14.9532903,4.09778831 L14.9532903,4.09778831 Z M9,11.7903226 C7.18281653,11.7903226 5.70967742,10.3171835 5.70967742,8.5 C5.70967742,6.68281653 7.18281653,5.20967742 9,5.20967742 C10.8171835,5.20967742 12.2903226,6.68281653 12.2903226,8.5 C12.2903226,10.3171835 10.8171835,11.7903226 9,11.7903226 Z M4.59778831,2.54670968 L6.7707379,4.71965927 C6.13464315,5.09622984 5.59677823,5.63375202 5.21965927,6.2707379 L3.04670968,4.09778831 C3.48475413,3.50739202 4.00739202,2.98475413 4.59778831,2.54670968 L4.59778831,2.54670968 Z M3.04670968,12.9022117 L5.21965927,10.7292621 C5.59622984,11.3653569 6.13375202,11.9032218 6.7707379,12.2803407 L4.59778831,14.4532903 C4.00739986,14.0152368 3.48476322,13.4926001 3.04670968,12.9022117 Z M13.4022117,14.4532903 L11.2292621,12.2803407 C11.8653569,11.9037702 12.4032218,11.366248 12.7803407,10.7292621 L14.9532903,12.9022117 C14.5152341,13.4925979 13.9925979,14.0152341 13.4022117,14.4532903 Z" id="Shape"></path>
            </g>
        </g>
    </g>
</svg>